<svg id="Layer_1" data-name="Layer 1" xmlns="http://www.w3.org/2000/svg" viewBox="0 0 1344 407"><defs><style>.cls-1{fill:#3c9;}</style></defs><path class="cls-1" d="M152.93,127.41C159,131,159,137,159.61,143.47a30.82,30.82,0,0,1-1.07,8.67,13.22,13.22,0,0,1-3.25,5.77C153,161,150,162,147,161c-30-5-49,15-64,37,19-10,42-10,61-5,7,2,9,15,6,24.47a13.41,13.41,0,0,1-3.22,5.69,13.75,13.75,0,0,1-5,3.21,18.55,18.55,0,0,1-6.53,1.08C120,228,105,225,90,228a11.13,11.13,0,0,1-.33,3.52v50.79a72.44,72.44,0,0,1-9,1.56,95.32,95.32,0,0,1-12.09.78,54.63,54.63,0,0,1-10.53-.91,18.77,18.77,0,0,1-7.67-3.25,14.06,14.06,0,0,1-4.68-6.5,31.75,31.75,0,0,1-1.56-10.92V210.93C44,202,46,193,40.17,185.23c-1.23-2.57-2.38-5.22-3.44-7.92-6.32-16.25-8.87-34.61,1.13-49.33A41.59,41.59,0,0,1,45,120c7-8,20-16,28-9a134.57,134.57,0,0,0,16,12,85.82,85.82,0,0,0,8.22,4.57C108,131,120,137,132.49,132.43a58.39,58.39,0,0,0,9.61-3C149,128.11,152.93,127.41,152.93,127.41Z"/><path class="cls-1" d="M237.27,289.55C219,276,196,275,176,265c-4-2-6-6-7.73-10.24a59.59,59.59,0,0,1-2.46-6.77,83,83,0,0,1-3.14-23.64q0-17.16,5.59-29.51A58.19,58.19,0,0,1,183,174.56a58.82,58.82,0,0,1,20.8-11.71,77.6,77.6,0,0,1,23.92-3.76,72.05,72.05,0,0,1,25.09,4.16,60.17,60.17,0,0,1,19.5,11.44A50.9,50.9,0,0,1,285,192.1a53.47,53.47,0,0,1,4.55,22.11q0,8.83-4.94,13.52t-13.78,6l-20.32,3-11.78,1.75C228,240,217,240,207,243c12,15,34,19,51.74,14.76a83.55,83.55,0,0,0,8.61-3,49.26,49.26,0,0,0,6.86-3.41,21.8,21.8,0,0,1,7,7.28,18.61,18.61,0,0,1,2.86,9.88q0,11.7-10.92,17.42a53.93,53.93,0,0,1-8.84,3.7,51.22,51.22,0,0,1-9.83,2.12,43.93,43.93,0,0,1-9.31-.17A34.33,34.33,0,0,1,237.27,289.55Zm-9.6-98.22a25.71,25.71,0,0,0-10.79,2.08,21.65,21.65,0,0,0-7.41,5.33,21.92,21.92,0,0,0-4.29,7.28,29.87,29.87,0,0,0-1.69,8.19L248,206.93q-.78-5.2-5.72-10.4T227.67,191.33Z"/><path class="cls-1" d="M718.27,277.55C700,264,677,263,657,253c-4-2-6-6-7.73-10.24a59.59,59.59,0,0,1-2.46-6.77,83,83,0,0,1-3.14-23.64q0-17.16,5.59-29.51A58.19,58.19,0,0,1,664,162.56a58.82,58.82,0,0,1,20.8-11.71,77.6,77.6,0,0,1,23.92-3.76,72.05,72.05,0,0,1,25.09,4.16,60.17,60.17,0,0,1,19.5,11.44A50.9,50.9,0,0,1,766,180.1a53.47,53.47,0,0,1,4.55,22.11q0,8.83-4.94,13.52t-13.78,6l-20.32,3-11.78,1.75C709,228,698,228,688,231c12,15,34,19,51.74,14.76a83.55,83.55,0,0,0,8.61-3,49.26,49.26,0,0,0,6.86-3.41,21.8,21.8,0,0,1,7,7.28,18.61,18.61,0,0,1,2.86,9.88q0,11.7-10.92,17.42a53.93,53.93,0,0,1-8.84,3.7,51.22,51.22,0,0,1-9.83,2.12,43.93,43.93,0,0,1-9.31-.17A34.33,34.33,0,0,1,718.27,277.55Zm-9.6-98.22a25.71,25.71,0,0,0-10.79,2.08,21.65,21.65,0,0,0-7.41,5.33,21.92,21.92,0,0,0-4.29,7.28,29.87,29.87,0,0,0-1.69,8.19L729,194.93q-.78-5.2-5.72-10.4T708.67,179.33Z"/><path class="cls-1" d="M360.07,247.09a61.67,61.67,0,0,1-8.19,1.56,83.66,83.66,0,0,1-11.57.78,61.15,61.15,0,0,1-10.27-.78,17.51,17.51,0,0,1-7.67-3.12,15.08,15.08,0,0,1-4.81-6.37,27.54,27.54,0,0,1-1.69-10.53v-78a22.28,22.28,0,0,1,2.21-10.28c2.48-2.22,4.78-4.52,6.95-6.87s4.2-4.76,6.18-7.19C335,120,341,116,348,117c21,2,37-9,55-18,10-5,19,5,24,14,7,15-1,37-19,36-19,0-39-12-55,1-1,1,3,7,3.51,12.3q.8,3.39,1.33,6.84a202.11,202.11,0,0,1,1.92,21c.06,3.53.05,7.07,0,10.6-.12,10.59-.48,21.13.3,31.24v15.13Z"/><path class="cls-1" d="M484.14,106.07C509,103,531,123,535,147c1-2,1-4,2.49-5.66,1.36-1.48,4.26-2.75,7.51-3.87q9.75-3.39,23.53-3.38a72.71,72.71,0,0,1,19.37,2.6,49.3,49.3,0,0,1,16.9,8.19,39.5,39.5,0,0,1,11.83,14.82q4.43,9.23,4.42,22.49v81.9a61.67,61.67,0,0,1-8.19,1.56,83.66,83.66,0,0,1-11.57.78,61.15,61.15,0,0,1-10.27-.78,17.51,17.51,0,0,1-7.67-3.12,15.08,15.08,0,0,1-4.81-6.37,28.75,28.75,0,0,1-1.78-10.51C576,223,579,200,575,177c-2-11-24-12-27-2-8,27-3,56-1.31,85.37v3.72a75,75,0,0,1-8.45,1.56,81.81,81.81,0,0,1-11.31.78,61.15,61.15,0,0,1-10.27-.78,17.51,17.51,0,0,1-7.67-3.12,15.08,15.08,0,0,1-4.81-6.37,27.54,27.54,0,0,1-1.69-10.53V233.89C504,220,500,205,502.19,190.57A58.09,58.09,0,0,1,504,182a147.23,147.23,0,0,1-36-4c9,17,1,40,4.33,60.35v25.74a61.67,61.67,0,0,1-8.19,1.56,83.66,83.66,0,0,1-11.57.78,61.15,61.15,0,0,1-10.27-.78,17.51,17.51,0,0,1-7.67-3.12,15.08,15.08,0,0,1-4.81-6.37,27.54,27.54,0,0,1-1.69-10.53V167.1q0-7,3-11.17a33.42,33.42,0,0,1,8.19-7.8C451,134,456,111,476.63,107.7A45.12,45.12,0,0,1,484.14,106.07Z"/><path class="cls-1" d="M855.72,226.57C846,221,844,207,834.2,200.51a24.26,24.26,0,0,0-6.17,3.36v90.22a62.34,62.34,0,0,1-8.19,1.56,83.77,83.77,0,0,1-11.57.78,61.07,61.07,0,0,1-10.27-.78,17.46,17.46,0,0,1-7.67-3.12,15,15,0,0,1-4.81-6.37,27.54,27.54,0,0,1-1.69-10.53v-78q0-7,3-11.44a31.29,31.29,0,0,1,8.19-8.06q8.84-6.24,22.23-10.14A100.06,100.06,0,0,1,839,164.33c2.3-.44,3.39-1.76,5.1-2.84C862,147,890,144,908,160c19,18,17,47,1.4,66.78a12.21,12.21,0,0,0-1.29,4.8v62.51a62.34,62.34,0,0,1-8.19,1.56,83.77,83.77,0,0,1-11.57.78,61.07,61.07,0,0,1-10.27-.78,17.46,17.46,0,0,1-7.67-3.12,15,15,0,0,1-4.81-6.37,27.54,27.54,0,0,1-1.69-10.53V237.35a7.27,7.27,0,0,0-1.44-4.09A28.28,28.28,0,0,0,855.72,226.57Z"/><path class="cls-1" d="M987.53,236.89C987,245,996,254,1004.87,251.34c3,.29,6.13.41,9.13.66,6.75.75,9.56,9.38,8,17.44a20.78,20.78,0,0,1-3,7.56,35.27,35.27,0,0,1-6.81,4.39C993,293,976.46,258.63,959,263c-8,2,0,18-4,17-5,4-12,3-18,1-5-2-9-4-11-10-5-16,5-30,13-43.23a70.48,70.48,0,0,0,4.22-11.4,45,45,0,0,0,1.57-12.09c.22-3.54.29-7.08.19-10.65-.29-10.69-2.06-21.53-3.3-31.67a71.5,71.5,0,0,1,.24-10.58V130.77c1.91-.52,4.64-1.09,8.2-1.69a66.75,66.75,0,0,1,11.3-.91q11.45,0,17.81,4t6.37,17v16.64h34.07a44,44,0,0,1,3,7.15,29.67,29.67,0,0,1,1.43,9.49,27,27,0,0,1-1,7.83c-5.07,13-21.19,7.59-31.63,9.45A12.25,12.25,0,0,0,986,202c-3.75,5.25-4.69,12.19-3.38,18.75a30,30,0,0,0,2,6.36C986.19,232.31,987.53,236.89,987.53,236.89Z"/><path class="cls-1" d="M1234.78,262.09a61.67,61.67,0,0,1-8.19,1.56,83.66,83.66,0,0,1-11.57.78,61.15,61.15,0,0,1-10.27-.78,17.51,17.51,0,0,1-7.67-3.12,15.08,15.08,0,0,1-4.81-6.37,27.54,27.54,0,0,1-1.69-10.53v-78a22.28,22.28,0,0,1,2.21-10.28,24.16,24.16,0,0,1,6.37-7.66,45.7,45.7,0,0,1,10.27-6.11,104.69,104.69,0,0,1,13.13-4.81,110.57,110.57,0,0,1,14.56-3.25,98.21,98.21,0,0,1,15.08-1.17q12.48,0,19.76,4.81t7.28,15.73a25.19,25.19,0,0,1-1,7.15,32.49,32.49,0,0,1-2.6,6.37q-5.46,0-11.18.52a111.83,111.83,0,0,0-11.18,1.56q-5.46,1-10.27,2.21a45,45,0,0,0-8.19,2.73Z"/><path class="cls-1" d="M1123.91,231.69c-18.27-13.55-41.27-14.55-61.27-24.55-4-2-6-6-7.73-10.23a60.43,60.43,0,0,1-2.45-6.78,82.68,82.68,0,0,1-3.15-23.64q0-17.16,5.59-29.51a57.11,57.11,0,0,1,35.49-32,77.61,77.61,0,0,1,23.92-3.77,72.28,72.28,0,0,1,25.09,4.16,60.35,60.35,0,0,1,19.5,11.44,50.84,50.84,0,0,1,12.74,17.42,53.42,53.42,0,0,1,4.55,22.1q0,8.84-4.94,13.52t-13.78,6l-20.32,3c-3.76.56-7.77,1.17-11.78,1.75-10.73,1.5-21.73,1.5-31.73,4.5,12,15,34,19,51.74,14.76a81.93,81.93,0,0,0,8.61-3,49.26,49.26,0,0,0,6.86-3.41,21.8,21.8,0,0,1,7,7.28,18.61,18.61,0,0,1,2.86,9.88q0,11.7-10.92,17.42a53.07,53.07,0,0,1-8.84,3.7,51.29,51.29,0,0,1-9.82,2.12,44.71,44.71,0,0,1-9.32-.16A34.34,34.34,0,0,1,1123.91,231.69Zm-9.6-98.22a25.71,25.71,0,0,0-10.79,2.08,21.79,21.79,0,0,0-7.41,5.33,22,22,0,0,0-4.29,7.28,30,30,0,0,0-1.69,8.19l44.46-7.28q-.78-5.2-5.72-10.4T1114.31,133.47Z"/></svg>